<?xml version="1.0" encoding="UTF-8"?>
<svg width="291px" height="107px" viewBox="0 0 291 107" version="1.1" xmlns="http://www.w3.org/2000/svg" xmlns:xlink="http://www.w3.org/1999/xlink">
    <!-- Generator: Sketch 44.1 (41455) - http://www.bohemiancoding.com/sketch -->
    <title>Illustration Copy@2x</title>
    <desc>Created with Sketch.</desc>
    <defs></defs>
    <g id="Page-1" stroke="none" stroke-width="1" fill="none" fill-rule="evenodd">
        <g id="Banking-Zero-State-Update-for-FDP-Integration" transform="translate(-371.000000, -148.000000)">
            <g id="Illustration-Copy" transform="translate(371.000000, 148.000000)">
                <g id="XMLID_2_" transform="translate(46.000000, 33.882834) scale(1, -1) translate(-46.000000, -33.882834) translate(1.000000, 4.882834)">
                    <g id="New_Symbol_16">
                        <g id="New_Symbol_164_3_">
                            <path d="M12.6866485,6.34332425 L89.599455,6.34332425 L89.599455,4.75749319 C89.599455,2.14087193 87.3,0 84.6833787,0 L4.59891008,0 C1.98228883,0 0.0792915531,2.14087193 0.0792915531,4.75749319 L0.0792915531,6.34332425 L8.00844687,6.34332425 L8.00844687,40.4386921" id="Shape" stroke="#BABEC5" stroke-width="2" stroke-linecap="round" stroke-linejoin="round"></path>
                            <g id="top_1_" transform="translate(12.686649, 49.160763)" fill-rule="nonzero" fill="#D3D6DC">
                                <polygon id="Shape" points="64.226158 0 0 0 0 3.17166213 64.226158 3.17166213"></polygon>
                            </g>
                            <path d="M82.4632153,9.51498638 L82.4632153,56.2970027 C82.4632153,57.1692098 81.7495913,57.8828338 80.8773842,57.8828338 L9.51498638,57.8828338 C8.64277929,57.8828338 7.92915531,57.1692098 7.92915531,56.2970027 L7.92915531,38.0599455" id="Shape" stroke="#BABEC5" stroke-width="2" stroke-linecap="round" stroke-linejoin="round"></path>
                            <polygon id="Shape" fill="#2CA01C" fill-rule="nonzero" points="68.9836512 38.0599455 20.6158038 38.0599455 20.6158038 43.6103542 68.9836512 43.6103542"></polygon>
                            <polygon id="Shape" fill="#7FD000" fill-rule="nonzero" points="53.1253406 38.0599455 34.8882834 38.0599455 34.8882834 43.6103542 53.1253406 43.6103542"></polygon>
                            <polygon id="Shape" fill="#53B700" fill-rule="nonzero" points="68.9836512 38.0599455 46.7820163 38.0599455 46.7820163 43.6103542 68.9836512 43.6103542"></polygon>
                            <path d="M30.9237057,30.9237057 L41.2316076,30.9237057" id="Shape" stroke="#B8BCC3" stroke-width="2"></path>
                            <path d="M30.9237057,22.9945504 L41.2316076,22.9945504" id="Shape" stroke="#B8BCC3" stroke-width="2"></path>
                            <path d="M30.9237057,15.0653951 L41.2316076,15.0653951" id="Shape" stroke="#B8BCC3" stroke-width="2"></path>
                            <polygon id="Shape" fill="#2F9F4B" fill-rule="nonzero" points="27.7520436 28.5449591 22.9945504 28.5449591 22.9945504 33.3024523 27.7520436 33.3024523"></polygon>
                            <polygon id="Shape" fill="#53B54C" fill-rule="nonzero" points="27.7520436 20.6158038 22.9945504 20.6158038 22.9945504 25.373297 27.7520436 25.373297"></polygon>
                            <polygon id="Shape" fill="#7FD000" fill-rule="nonzero" points="27.7520436 13.479564 22.9945504 13.479564 22.9945504 18.2370572 27.7520436 18.2370572"></polygon>
                            <path d="M55.5040872,34.0953678 C49.7950954,34.0953678 45.1961853,29.4964578 45.1961853,23.7874659 C45.1961853,18.0784741 49.7950954,13.479564 55.5040872,13.479564 C61.213079,13.479564 65.8119891,18.0784741 65.8119891,23.7874659 C65.8119891,29.4964578 61.213079,34.0953678 55.5040872,34.0953678 Z M55.5040872,18.9506812 C52.8081744,18.9506812 50.6673025,21.0915531 50.6673025,23.7874659 C50.6673025,26.4833787 52.8081744,28.6242507 55.5040872,28.6242507 C58.2,28.6242507 60.3408719,26.4833787 60.3408719,23.7874659 C60.3408719,21.0915531 58.2,18.9506812 55.5040872,18.9506812 Z" id="Shape" fill="#53B700" fill-rule="nonzero"></path>
                            <path d="M60.3408719,23.7874659 C60.3408719,23.5495913 60.3408719,23.2324251 60.2615804,22.9945504 L65.8119891,22.9945504 C65.8119891,23.2324251 65.8912807,23.5495913 65.8912807,23.7874659 C65.8912807,26.6419619 64.7019074,29.1792916 62.8782016,31.0822888 L58.9929155,27.1970027 C59.7858311,26.3247956 60.3408719,25.1354223 60.3408719,23.7874659 Z" id="Shape" fill="#7FD000" fill-rule="nonzero"></path>
                            <path d="M60.2615804,22.9945504 C59.8651226,20.6950954 57.8828338,18.9506812 55.5040872,18.9506812 C54.3147139,18.9506812 53.2046322,19.4264305 52.4117166,20.1400545 C51.1430518,18.9506812 49.7158038,17.6027248 48.3678474,16.4133515 C50.1915531,14.5896458 52.7288828,13.479564 55.5040872,13.479564 C60.8959128,13.479564 65.3362398,17.6820163 65.7326975,22.9945504 L60.2615804,22.9945504 Z" id="Shape" fill="#2CA01C" fill-rule="nonzero"></path>
                        </g>
                    </g>
                </g>
                <path d="M100.864228,103.91187 L40.3772358,103.91187 C33.9105691,103.91187 28.3113821,98.247164 28.3113821,91.7964801 L28.3113821,66.147164" id="Stroke-18" stroke="#BABEC5" stroke-width="2" stroke-linecap="round" stroke-linejoin="round"></path>
                <path d="M99.2869919,97.6177522 L104.807317,97.6177522 C105.674797,97.6177522 106.384553,98.3258404 106.384553,99.1912816 L106.384553,103.91187 C106.384553,104.778098 107.094309,105.485399 107.961789,105.485399 L119.791057,105.485399 C120.658537,105.485399 121.368293,104.778098 121.368293,103.91187 L121.368293,99.1126051 C121.368293,98.247164 120.895122,97.0670169 120.264228,96.4376051 L112.378049,88.5699581 C111.747154,87.9405463 110.564228,87.4692743 109.696748,87.4692743 L104.018699,87.4692743 C103.15122,87.4692743 102.441463,88.1765757 102.441463,89.0428037 L102.441463,95.3369213" id="Stroke-19" stroke="#BABEC5" stroke-width="2" stroke-linecap="round" stroke-linejoin="round"></path>
                <path d="M133.197561,57.4927522 L123.182114,57.4927522 C120.737398,57.4927522 118.371545,58.2795169 116.636585,59.9325096 L86.8268293,87.7045169 C84.303252,91.9530463 87.3,97.6177522 92.1894309,97.6177522 L101.652846,97.6177522" id="Stroke-20" stroke="#BABEC5" stroke-width="2" stroke-linecap="round" stroke-linejoin="round"></path>
                <polyline id="Stroke-21" stroke="#BABEC5" stroke-width="2" stroke-linecap="round" stroke-linejoin="round" points="112.851377 84.8720066 121.36845 76.454411 121.36845 92.1102419"></polyline>
                <path d="M146.604065,25.2353993 L146.604065,17.5251051 C146.604065,16.659664 147.234959,16.1089287 148.102439,16.3449581 L161.82439,19.9640757 C162.69187,20.2001051 163.953659,20.1214287 164.821138,19.7280463 L173.495935,16.1089287" id="Stroke-22" stroke="#BABEC5" stroke-width="2" stroke-linecap="round" stroke-linejoin="round"></path>
                <path d="M157.408288,40.7348213 C157.408288,40.7348213 159.064385,44.1179096 163.559507,44.1179096 C168.054629,44.1179096 169.710727,40.7348213 169.710727,40.7348213" id="Stroke-23" stroke="#BABEC5" stroke-width="2" stroke-linecap="round" stroke-linejoin="round"></path>
                <path d="M177.360163,36.2501051 L177.360163,38.6890757 C177.360163,45.8486346 171.760976,51.9853993 164.584553,51.9853993 L152.12439,51.9853993" id="Stroke-24" stroke="#BABEC5" stroke-width="2" stroke-linecap="round" stroke-linejoin="round"></path>
                <path d="M160.720641,12.7259191 C165.452348,12.8832721 167.975137,8.87077206 171.603567,4.85827206 C173.653185,2.57665441 177.438551,3.91415441 177.438551,6.98253676 L177.438551,14.8501838 L177.438551,22.8751838" id="Stroke-25" stroke="#BABEC5" stroke-width="2" stroke-linecap="round" stroke-linejoin="round"></path>
                <path d="M133.197561,57.4927522 L133.197561,20.7508404 C133.197561,13.4339287 140.373984,7.13981103 147.944715,7.13981103 L163.953659,7.13981103" id="Stroke-26" stroke="#BABEC5" stroke-width="2" stroke-linecap="round" stroke-linejoin="round"></path>
                <path d="M171.05122,33.1030463 L178.937398,33.1030463 C179.410569,33.1030463 179.726016,32.7883404 179.726016,32.3162816 L179.804878,26.8876051 C179.804878,26.4942228 179.489431,26.1008404 179.01626,26.1008404 L170.262602,26.022164 C169.868293,26.022164 169.473984,26.3368699 169.473984,26.8089287 L169.473984,28.3824581 C169.473984,28.7758404 169.158537,29.1692228 168.685366,29.1692228 L165.530894,29.1692228 C165.057724,29.1692228 164.742276,28.7758404 164.742276,28.3824581 L164.742276,26.8089287 C164.742276,26.4155463 164.426829,26.022164 163.953659,26.022164 L153.780488,26.1008404 C153.386179,26.1008404 152.99187,26.4942228 152.99187,26.8876051 L152.913008,32.3162816 C152.913008,32.709664 153.228455,33.1030463 153.701626,33.1030463 L163.165041,33.1030463" id="Stroke-27" stroke="#BABEC5" stroke-width="2" stroke-linecap="round" stroke-linejoin="round"></path>
                <path d="M152.913008,29.9559875 L146.288618,29.9559875 C146.288618,29.9559875 141.793496,30.4280463 141.793496,35.3059875 C141.793496,40.1839287 146.209756,40.9706934 146.209756,40.9706934" id="Stroke-28" stroke="#BABEC5" stroke-width="2" stroke-linecap="round" stroke-linejoin="round"></path>
                <path d="M126.1,96.0442228 C126.1,95.6508404 126.494309,95.2574581 126.888618,95.2574581 L130.831707,95.2574581 C131.226016,95.2574581 131.856911,95.0214287 132.25122,94.7853993 L135.878862,91.8743699 C136.194309,91.6383404 136.825203,91.4030978 137.298374,91.4030978 L141.08374,91.4030978 C141.478049,91.4030978 141.872358,91.7964801 141.872358,92.1898625 L141.872358,104.778098 C141.872358,105.24937 141.478049,105.564863 141.08374,105.564863 L137.298374,105.564863 C136.904065,105.564863 136.273171,105.328046 135.878862,105.092017 L132.25122,102.180988 C131.935772,101.944958 131.304878,101.708929 130.831707,101.708929 L126.888618,101.708929 C126.494309,101.708929 126.1,101.394223 126.1,100.922164 L126.1,96.0442228 Z" id="Stroke-29" stroke="#BABEC5" stroke-width="2" stroke-linecap="round" stroke-linejoin="round"></path>
                <path d="M168.685366,96.0442228 C168.685366,95.6508404 168.369919,95.2574581 167.896748,95.2574581 L163.953659,95.2574581 C163.480488,95.2574581 162.928455,95.0214287 162.534146,94.7853993 L158.906504,91.8743699 C158.591057,91.6383404 157.960163,91.4030978 157.486992,91.4030978 L153.701626,91.4030978 C153.307317,91.4030978 152.913008,91.7964801 152.913008,92.1898625 L152.913008,104.778098 C152.913008,105.24937 153.307317,105.564863 153.701626,105.564863 L157.486992,105.564863 C157.960163,105.564863 158.512195,105.328046 158.906504,105.092017 L162.534146,102.180988 C162.849593,101.944958 163.480488,101.708929 163.953659,101.708929 L167.896748,101.708929 C168.369919,101.708929 168.685366,101.394223 168.685366,100.922164 L168.685366,96.0442228 Z" id="Stroke-30" stroke="#BABEC5" stroke-width="2" stroke-linecap="round" stroke-linejoin="round"></path>
                <path d="M145.026829,95.2574581 L149.758537,95.2574581" id="Stroke-31" stroke="#BABEC5" stroke-width="2" stroke-linecap="round" stroke-linejoin="round"></path>
                <path d="M145.026829,101.551576 L149.758537,101.551576" id="Stroke-32" stroke="#BABEC5" stroke-width="2" stroke-linecap="round" stroke-linejoin="round"></path>
                <path d="M191.555285,97.6177522 L200.860976,97.6177522 C205.750407,97.6177522 208.826016,91.9530463 206.302439,87.7045169 L177.202439,59.1457449 C175.46748,57.4927522 173.180488,56.7059875 170.735772,56.7059875 L157.644715,56.7059875 L153.701626,71.497164 L148.181301,64.3376051 L142.660976,71.3405978 L137.929268,57.3353993" id="Stroke-33" stroke="#BABEC5" stroke-width="2" stroke-linecap="round" stroke-linejoin="round"></path>
                <polyline id="Stroke-34" stroke="#BABEC5" stroke-width="2" stroke-linecap="round" stroke-linejoin="round" points="180.514634 83.4559875 173.417073 75.5883404 173.417073 92.1103993"></polyline>
                <path d="M111.904878,98.4045169 L111.904878,105.485399" id="Stroke-35" stroke="#BABEC5" stroke-width="2" stroke-linecap="round" stroke-linejoin="round"></path>
                <path d="M116.636585,98.4045169 L116.636585,105.485399" id="Stroke-36" stroke="#BABEC5" stroke-width="2" stroke-linecap="round" stroke-linejoin="round"></path>
                <path d="M195.498374,97.6177522 L189.978049,97.6177522 C189.110569,97.6177522 188.400813,98.3258404 188.400813,99.1912816 L188.400813,103.91187 C188.400813,104.778098 187.691057,105.485399 186.823577,105.485399 L174.994309,105.485399 C174.126829,105.485399 173.417073,104.778098 173.417073,103.91187 L173.417073,99.1126051 C173.417073,98.247164 173.890244,97.0670169 174.521138,96.4376051 L182.407317,88.5699581 C183.038211,87.9405463 184.221138,87.4692743 185.088618,87.4692743 L190.766667,87.4692743 C191.634146,87.4692743 192.343902,88.1765757 192.343902,89.0428037 L192.343902,95.3369213" id="Stroke-37" stroke="#BABEC5" stroke-width="2" stroke-linecap="round" stroke-linejoin="round"></path>
                <path d="M182.880488,98.4045169 L182.880488,105.485399" id="Stroke-38" stroke="#BABEC5" stroke-width="2" stroke-linecap="round" stroke-linejoin="round"></path>
                <path d="M178.14878,98.4045169 L178.14878,105.485399" id="Stroke-39" stroke="#BABEC5" stroke-width="2" stroke-linecap="round" stroke-linejoin="round"></path>
                <path d="M267.262602,68.5074581 L287.766667,68.5074581 C289.028455,68.5074581 290.13252,67.4067743 290.13252,66.147164 L290.13252,63.7868699 C290.13252,62.5280463 289.028455,61.4265757 287.766667,61.4265757 L282.246341,61.4265757 C280.984553,61.4265757 279.880488,60.4037816 279.880488,59.0662816 L279.880488,24.4486346 C279.880488,23.189811 280.984553,22.0883404 282.246341,22.0883404 L288.555285,22.0883404 C289.817073,22.0883404 290.053659,21.5376051 288.949593,20.7508404 L259.770732,1.31775221 C258.666667,0.609663971 256.931707,0.609663971 255.827642,1.31775221 L225.860163,20.7508404 C224.756098,21.5376051 224.913821,22.0883404 226.254472,22.0883404 L275.14878,22.0883404 C276.489431,22.0883404 276.647154,21.5376051 275.543089,20.8295169 L259.849593,10.7589287 C258.745528,10.0508404 256.931707,10.0508404 255.906504,10.7589287 L245.969919,17.3677522" id="Stroke-40" stroke="#BABEC5" stroke-width="2" stroke-linecap="round" stroke-linejoin="round"></path>
                <path d="M272.782927,55.9192228 L272.782927,29.2478993 C272.782927,27.9890757 271.757724,26.8089287 270.417073,26.8089287 L267.262602,26.8089287 C265.921951,26.8089287 264.896748,27.9890757 264.896748,29.2478993 L264.896748,53.5589287 C264.896748,54.818539 263.871545,55.9192228 262.530894,55.9192228 L260.086179,55.9192228 C258.745528,55.9192228 257.799187,54.818539 257.799187,53.5589287 L257.799187,29.2478993 C257.799187,27.9890757 256.61626,26.8089287 255.354472,26.8089287 L252.278862,26.8089287 C250.938211,26.8089287 249.913008,27.9890757 249.913008,29.2478993 L249.913008,53.5589287 C249.913008,54.818539 248.887805,55.9192228 247.547154,55.9192228 L245.181301,55.9192228 C243.84065,55.9192228 242.815447,54.818539 242.815447,53.5589287 L242.815447,29.2478993 C242.815447,27.9890757 241.790244,26.8089287 240.449593,26.8089287 L237.295122,26.8089287 C235.954472,26.8089287 234.929268,27.9890757 234.929268,29.2478993 L234.929268,59.0662816 C234.929268,60.3258919 233.904065,61.4265757 232.563415,61.4265757 L227.043089,61.4265757 C225.702439,61.4265757 224.677236,62.4493699 224.677236,63.7868699 L224.677236,66.147164 C224.677236,67.4067743 225.702439,68.5074581 227.043089,68.5074581 L259.376423,68.5074581" id="Stroke-41" stroke="#BABEC5" stroke-width="2" stroke-linecap="round" stroke-linejoin="round"></path>
                <path d="M239.660976,60.639811 L275.14878,60.639811" id="Stroke-42" stroke="#BABEC5" stroke-width="2" stroke-linecap="round" stroke-linejoin="round"></path>
                <path d="M267.262602,68.5074581 L267.262602,91.3236346 C267.262602,97.7751051 261.9,103.125105 255.433333,103.125105 L193.13252,103.125105" id="Stroke-43" stroke="#BABEC5" stroke-width="2" stroke-linecap="round" stroke-linejoin="round"></path>
                <path d="M34.6203252,67.7206934 L34.6203252,89.7501051" id="Stroke-44" stroke="#B8BCC3" stroke-width="2" stroke-dasharray="2,2"></path>
                <path d="M47.2382114,99.1912816 L81.1487805,99.1912816" id="Stroke-45" stroke="#B8BCC3" stroke-width="2" stroke-dasharray="2,2"></path>
                <path d="M213.636585,97.6177522 L247.756584,97.6177522" id="Stroke-46" stroke="#B8BCC3" stroke-width="2" stroke-dasharray="2,2"></path>
                <path d="M260.953659,71.6545169 L260.953659,90.5368699" id="Stroke-47" stroke="#B8BCC3" stroke-width="2" stroke-dasharray="2,2"></path>
            </g>
        </g>
    </g>
</svg>