<?xml version="1.0" encoding="UTF-8" standalone="no"?><svg width="514px" height="103px" viewBox="0 0 514 103" version="1.1" xmlns="http://www.w3.org/2000/svg" xmlns:xlink="http://www.w3.org/1999/xlink">        <title>Artboard 2</title>    <desc>Created with Sketch.</desc>    <defs></defs>    <g id="Page-1" stroke="none" stroke-width="1" fill="none" fill-rule="evenodd">        <g id="Artboard-2">            <path d="M413.669,75.4574 C406.703,75.4574 403.529,69.5164 403.529,63.9964 C403.529,58.5504 406.703,52.6894 413.669,52.6894 C420.635,52.6894 423.808,58.5504 423.808,63.9964 C423.808,69.5164 420.635,75.4574 413.669,75.4574 L413.669,75.4574 Z M413.669,43.7194 C401.514,43.7194 392.692,52.2464 392.692,63.9964 C392.692,76.1544 401.71,84.6874 413.669,84.6874 C425.627,84.6874 434.645,76.0724 434.645,63.9964 C434.645,52.2464 425.823,43.7194 413.669,43.7194 L413.669,43.7194 Z M294.892,44.8084 L281.115,44.8084 L267.322,60.8604 L267.085,60.8604 L267.085,23.4894 L256.403,23.4894 L256.403,83.4944 L267.085,83.4944 L267.085,64.4134 L267.323,64.4134 L281.632,83.4944 L295.69,83.4944 L279.059,62.3524 L294.892,44.8084 Z M319.576,75.4574 C313.132,75.4574 309.282,69.7084 309.282,64.1514 C309.282,58.6394 313.217,52.6894 319.576,52.6894 C326.489,52.6894 329.928,58.5504 329.928,63.9964 C329.928,69.6914 326.182,75.4574 319.576,75.4574 L319.576,75.4574 Z M321.676,43.7194 C316.791,43.7194 313.191,45.8544 309.793,49.0394 L309.593,49.0394 L309.593,23.4894 L298.911,23.4894 L298.911,83.4944 L309.127,83.4944 L309.127,78.0264 L309.286,78.0264 C311.695,81.9764 316.48,84.5834 321.444,84.5834 C332.471,84.5834 340.83,75.9254 340.83,63.9964 C340.83,52.2464 332.569,43.7194 321.676,43.7194 L321.676,43.7194 Z M480.087,44.8084 L466.31,44.8084 L452.517,60.8604 L452.28,60.8604 L452.28,23.4894 L441.597,23.4894 L441.597,83.4944 L452.28,83.4944 L452.28,64.4134 L452.518,64.4134 L466.827,83.4944 L480.885,83.4944 L464.254,62.3524 L480.087,44.8084 Z M500.282,59.6834 C494.785,58.3714 492.847,57.6654 492.847,55.4384 C492.847,52.3684 496.737,51.6954 498.498,51.6954 C501.813,51.6954 505.557,53.6744 506.966,55.5534 L513.265,49.5104 C510.352,45.8514 504.623,43.7194 498.575,43.7194 C490.844,43.7194 482.726,47.6074 482.726,56.2944 C482.726,63.7534 488.572,66.0044 494.293,67.3754 C500.322,68.7794 502.474,69.8054 502.474,72.2344 C502.474,75.8144 498.411,76.3994 497.013,76.3994 C493.519,76.3994 489.469,74.3984 487.284,71.8054 L480.799,78.3794 C484.342,82.3084 490.406,84.6724 496.624,84.6724 C507.068,84.6724 513.265,79.6944 513.265,71.4784 C513.265,63.6184 505.68,60.9764 500.282,59.6834 L500.282,59.6834 Z M366.727,75.4574 C359.761,75.4574 356.587,69.5164 356.587,63.9964 C356.587,58.5504 359.761,52.6894 366.727,52.6894 C373.693,52.6894 376.866,58.5504 376.866,63.9964 C376.866,69.5164 373.693,75.4574 366.727,75.4574 L366.727,75.4574 Z M366.727,43.7194 C354.572,43.7194 345.75,52.2464 345.75,63.9964 C345.75,76.1544 354.768,84.6874 366.727,84.6874 C378.685,84.6874 387.703,76.0724 387.703,63.9964 C387.703,52.2464 378.881,43.7194 366.727,43.7194 L366.727,43.7194 Z M123.397,75.4574 C116.792,75.4574 113.036,69.6914 113.036,63.9964 C113.036,58.5504 116.485,52.6894 123.397,52.6894 C129.756,52.6894 133.691,58.6394 133.691,64.1514 C133.691,69.7084 129.841,75.4574 123.397,75.4574 L123.397,75.4574 Z M133.77,49.7194 L133.533,49.7194 C132.024,48.0504 127.935,43.7194 121.297,43.7194 C110.405,43.7194 102.011,52.2464 102.011,63.9964 C102.011,75.9254 109.756,84.5834 120.784,84.5834 C125.792,84.5834 130.495,81.9304 133.221,78.8444 L133.38,78.8444 L133.38,102.5454 L144.062,102.5454 L144.062,44.8084 L133.77,44.8084 L133.77,49.7194 Z M178.742,66.0184 C178.742,70.5644 175.779,75.4574 170.256,75.4574 C165.998,75.4574 163.724,72.4204 163.724,66.1744 L163.724,44.8084 L153.042,44.8084 L153.042,68.8184 C153.042,76.8074 157.028,84.5834 167.689,84.5834 C172.716,84.5834 176.927,80.6264 179.049,77.7054 L179.209,77.7054 L179.209,83.4944 L189.424,83.4944 L189.424,44.8084 L178.742,44.8084 L178.742,66.0184 Z M198.167,83.4944 L208.849,83.4944 L208.849,44.8074 L198.167,44.8074 L198.167,83.4944 Z M236.673,75.4574 C230.169,75.4574 226.89,69.6464 226.89,64.0274 C226.89,58.4094 230.448,52.8454 236.361,52.8454 C239.13,52.8454 242.631,54.2344 244.005,56.1864 L250.89,49.3264 C247.557,45.8154 242.245,43.7194 236.361,43.7194 C224.387,43.7194 215.696,52.3124 215.696,64.1514 C215.696,76.1824 224.289,84.5834 236.595,84.5834 C242.45,84.5834 247.861,82.8704 251.069,79.4214 L244.372,72.2344 C242.825,74.1174 239.582,75.4574 236.673,75.4574 L236.673,75.4574 Z" id="Fill-1" fill="#FFFFFF"></path>            <path d="M0,45.9998 C0,21.1468 20.148,0.9998 45,0.9998 C69.853,0.9998 90,21.1468 90,45.9998 C90,70.8518 69.853,90.9998 45,90.9998 C20.148,90.9998 0,70.8518 0,45.9998" id="Fill-4" fill="#2CA01C"></path>            <path d="M60.0044,28.5012 L57.5044,28.5012 L57.5044,35.0012 L60.0044,35.0012 C66.0694,35.0012 71.0044,39.9362 71.0044,46.0012 C71.0044,52.0662 66.0694,57.0012 60.0044,57.0012 L53.9964,57.0012 L53.9964,23.0012 C53.9964,19.4112 51.0864,16.5012 47.4964,16.5012 L47.4964,63.5012 L60.0044,63.5012 C69.6694,63.5012 77.5044,55.6662 77.5044,46.0012 C77.5044,36.3362 69.6694,28.5012 60.0044,28.5012 M12.4954,45.9982 C12.4954,55.6632 20.3304,63.4982 29.9954,63.4982 L32.4954,63.4982 L32.4954,56.9982 L29.9954,56.9982 C23.9304,56.9982 18.9954,52.0642 18.9954,45.9982 C18.9954,39.9332 23.9304,34.9982 29.9954,34.9982 L36.0034,34.9982 L36.0034,68.9982 C36.0034,72.5882 38.9134,75.4982 42.5034,75.4982 L42.5034,28.4982 L29.9954,28.4982 C20.3304,28.4982 12.4954,36.3342 12.4954,45.9982" id="Fill-7" fill="#FFFFFF"></path>            <path d="M170.6766,24.6508 C170.6766,27.2758 169.1996,29.9818 166.0846,29.9818 C162.9266,29.9818 162.3936,27.0698 162.3936,24.7328 L162.3936,13.8258 L157.4726,13.8258 L157.4726,26.1268 C157.4726,30.1468 159.6046,34.0818 164.7316,34.0818 C167.6416,34.0818 169.9806,32.3188 170.8406,30.3498 L170.9226,30.3498 L170.9226,33.5078 L175.5976,33.5078 L175.5976,13.8258 L170.6766,13.8258 L170.6766,24.6508 Z M138.0916,18.1738 L143.6086,18.1738 L143.6086,33.5078 L148.5296,33.5078 L148.5296,18.1738 L154.0466,18.1738 L154.0466,13.8138 L138.0916,13.8138 L138.0916,18.1738 Z M180.6346,33.5078 L185.5556,33.5078 L185.5556,13.8248 L180.6346,13.8248 L180.6346,33.5078 Z M189.0026,13.8138 L189.0026,18.1738 L194.5206,18.1738 L194.5206,33.5078 L199.4416,33.5078 L199.4416,18.1738 L204.9586,18.1738 L204.9586,13.8138 L189.0026,13.8138 Z M196.9806,11.2478 C198.6226,11.2478 199.9536,9.9158 199.9536,8.2738 C199.9536,6.6318 198.6226,5.2998 196.9806,5.2998 C195.3386,5.2998 194.0076,6.6318 194.0076,8.2738 C194.0076,9.9158 195.3386,11.2478 196.9806,11.2478 L196.9806,11.2478 Z M107.4976,33.5078 L112.4186,33.5078 L112.4186,13.8248 L107.4976,13.8248 L107.4976,33.5078 Z M128.3256,13.2508 C125.4156,13.2508 123.0776,15.0148 122.2176,16.9818 L122.1346,16.9818 L122.1346,13.8258 L117.4616,13.8258 L117.4616,33.5078 L122.3806,33.5078 L122.3806,22.6818 C122.3806,20.0588 123.8576,17.3508 126.9726,17.3508 C130.1306,17.3508 130.6646,20.2638 130.6646,22.5998 L130.6646,33.5078 L135.5846,33.5078 L135.5846,21.2058 C135.5846,17.1878 133.4526,13.2508 128.3256,13.2508 L128.3256,13.2508 Z M146.0696,11.2478 C147.7116,11.2478 149.0426,9.9158 149.0426,8.2738 C149.0426,6.6318 147.7116,5.2998 146.0696,5.2998 C144.4276,5.2998 143.0956,6.6318 143.0956,8.2738 C143.0956,9.9158 144.4276,11.2478 146.0696,11.2478 L146.0696,11.2478 Z" id="Fill-9" fill="#FFFFFF"></path>        </g>    </g></svg>